<svg width="91" height="28" viewBox="0 0 91 28" fill="none" xmlns="http://www.w3.org/2000/svg">
<g clip-path="url(#clip0_4_715)">
<path d="M26.2996 19.8442C26.1584 19.503 26.0261 19.1442 25.8849 18.838L25.232 17.3767L25.2055 17.3505C23.2643 13.1505 21.1908 8.88047 18.9937 4.68047L18.9055 4.50547C18.6849 4.09422 18.4643 3.63922 18.2349 3.21922C17.9525 2.72047 17.679 2.18672 17.229 1.67922C16.7904 1.14821 16.2383 0.720384 15.6127 0.426617C14.9871 0.13285 14.3036 -0.0195312 13.6114 -0.0195312C12.9192 -0.0195312 12.2356 0.13285 11.61 0.426617C10.9844 0.720384 10.4324 1.14821 9.99372 1.67922C9.57901 2.18672 9.27019 2.72047 8.98783 3.21922C8.76724 3.67422 8.54666 4.12047 8.31724 4.53172L8.22901 4.70672C6.06724 8.90672 3.95842 13.1767 2.01724 17.3767L1.9643 17.4292C1.77019 17.8842 1.54077 18.3567 1.32019 18.8642C1.17901 19.1705 1.03783 19.503 0.896656 19.8705C0.515509 20.8328 0.393796 21.877 0.543514 22.9001C0.693232 23.9233 1.10921 24.8901 1.75046 25.7053C2.39171 26.5205 3.23609 27.1559 4.20038 27.549C5.16468 27.942 6.21561 28.0791 7.2496 27.9467C8.24089 27.8173 9.19543 27.4899 10.0555 26.9842C11.2025 26.3455 12.3055 25.418 13.5408 24.0792C14.7761 25.418 15.9055 26.3455 17.0261 26.993C18.1037 27.6202 19.324 27.9664 20.5731 27.9992C22.0196 28.0052 23.4194 27.492 24.5141 26.5543C25.6088 25.6167 26.3245 24.318 26.529 22.898C26.7653 21.8775 26.6854 20.8101 26.2996 19.8355V19.8442ZM13.629 21.2967C12.1114 19.3717 11.1231 17.6042 10.7878 16.0905C10.6489 15.5295 10.619 14.9475 10.6996 14.3755C10.7614 13.9292 10.929 13.5355 11.1584 13.203C11.6878 12.4417 12.6143 11.9692 13.629 11.9692C14.1109 11.9546 14.5889 12.0589 15.0201 12.2727C15.4513 12.4865 15.8222 12.8032 16.0996 13.1942C16.329 13.5442 16.4967 13.9292 16.5496 14.3755C16.6378 14.883 16.6025 15.4692 16.4614 16.0905C16.1261 17.578 15.1378 19.363 13.629 21.2967ZM24.8702 22.5917C24.7699 23.3127 24.4809 23.995 24.032 24.5707C23.583 25.1464 22.9898 25.5954 22.3114 25.873C21.6408 26.153 20.8996 26.2317 20.1761 26.153C19.4702 26.0655 18.7643 25.838 18.0408 25.418C16.8395 24.6817 15.7592 23.7668 14.8378 22.7055C16.6908 20.4305 17.8114 18.3567 18.2349 16.5105C18.4378 15.6355 18.4643 14.848 18.3761 14.1217C18.2659 13.4333 18.007 12.7767 17.6172 12.1967C17.1722 11.5678 16.5781 11.057 15.8873 10.7091C15.1965 10.3613 14.4301 10.187 13.6555 10.2017C12.0231 10.2017 10.5672 10.9542 9.68489 12.188C9.28769 12.7665 9.03099 13.4284 8.93489 14.1217C8.82019 14.8567 8.84666 15.6705 9.07607 16.5105C9.4996 18.3567 10.6467 20.4567 12.4731 22.723C11.5674 23.8046 10.4846 24.7275 9.27018 25.453C8.53783 25.873 7.84077 26.0917 7.13489 26.1792C6.03714 26.3187 4.92826 26.0228 4.04927 25.3559C3.17028 24.6891 2.59223 23.7051 2.44077 22.618C2.35254 21.918 2.4143 21.218 2.69666 20.4305C2.78489 20.1505 2.91724 19.8705 3.05842 19.538C3.25254 19.083 3.48195 18.6105 3.70254 18.138L3.73783 18.0767C5.64371 13.903 7.72607 9.64172 9.88783 5.46797L9.97607 5.29297C10.1967 4.87297 10.4172 4.42672 10.6467 4.00672C10.8761 3.56047 11.1231 3.13172 11.4408 2.78172C11.7157 2.45624 12.0593 2.19448 12.4473 2.01488C12.8352 1.83528 13.2582 1.74221 13.6864 1.74221C14.1145 1.74221 14.5375 1.83528 14.9255 2.01488C15.3134 2.19448 15.657 2.45624 15.932 2.78172C16.2408 3.13172 16.4967 3.56047 16.7261 4.00672C16.9467 4.42672 17.1672 4.88172 17.3967 5.29297L17.4849 5.46797C19.6378 9.64172 21.7202 13.903 23.6614 18.0767L23.6878 18.103C23.9172 18.558 24.1114 19.0655 24.3319 19.503C24.4731 19.8442 24.6143 20.1155 24.7025 20.4042C24.8702 21.1917 24.9584 21.8917 24.8702 22.5917ZM37.1525 21.1042C36.4876 21.1139 35.8291 20.9749 35.2258 20.6977C34.6224 20.4205 34.0897 20.0122 33.6672 19.503C32.7179 18.4179 32.214 17.0189 32.2555 15.583C32.241 14.1158 32.7611 12.6927 33.7202 11.5755C34.1638 11.0598 34.7161 10.6468 35.3381 10.3656C35.9601 10.0844 36.6366 9.94184 37.3202 9.94797C37.9634 9.93051 38.6004 10.0755 39.1715 10.3694C39.7426 10.6633 40.229 11.0964 40.5849 11.628L40.6731 10.2542H43.2496V20.8242H40.6643L40.5761 19.2842C40.2092 19.8518 39.702 20.3169 39.1028 20.6355C38.5037 20.954 37.8323 21.1154 37.1525 21.1042ZM37.8231 18.5842C38.3349 18.5842 38.7849 18.4442 39.2084 18.1905C39.5967 17.9105 39.9143 17.543 40.1614 17.0967C40.3819 16.6505 40.4967 16.1167 40.4967 15.5217C40.5311 15.0049 40.4296 14.4882 40.2023 14.0219C39.9749 13.5556 39.6294 13.1559 39.1996 12.8617C38.7866 12.6065 38.3097 12.4713 37.8231 12.4713C37.3365 12.4713 36.8597 12.6065 36.4467 12.8617C36.0584 13.1417 35.7408 13.5092 35.4937 13.9555C35.2604 14.4476 35.1456 14.9868 35.1584 15.5305C35.124 16.0472 35.2255 16.564 35.4528 17.0303C35.6802 17.4965 36.0256 17.8963 36.4555 18.1905C36.8702 18.4442 37.3202 18.5842 37.8231 18.5842ZM47.6614 7.40172C47.6614 7.70797 47.6084 7.98797 47.4672 8.21547C47.3261 8.43422 47.1319 8.63547 46.8761 8.77547C46.6202 8.91547 46.3467 8.96797 46.0643 8.96797C45.7819 8.96797 45.4996 8.91547 45.2437 8.77547C45.0017 8.64187 44.7982 8.44909 44.6525 8.21547C44.5159 7.96621 44.4489 7.68527 44.4584 7.40172C44.4584 7.08672 44.5202 6.80672 44.6525 6.58797C44.7937 6.32547 44.9967 6.16797 45.2437 6.02797C45.4996 5.88797 45.7731 5.82672 46.0643 5.82672C46.3452 5.8203 46.6229 5.88627 46.8703 6.01816C47.1178 6.15006 47.3265 6.34338 47.4761 6.57922C47.6045 6.83432 47.6681 7.11668 47.6614 7.40172ZM44.6614 20.7892V10.2367H47.4672V20.8067H44.6525L44.6614 20.7892ZM54.9672 13.0017V13.0367C54.8349 12.9755 54.6584 12.9492 54.5261 12.923C54.3496 12.888 54.2084 12.888 54.0408 12.888C53.2555 12.888 52.6643 13.1155 52.2761 13.588C51.8525 14.0692 51.6584 14.743 51.6584 15.6092V20.798H48.8437V10.228H51.429L51.5172 11.8292C51.7996 11.2692 52.1349 10.8492 52.6114 10.5342C53.0853 10.2282 53.6433 10.0753 54.2084 10.0967C54.4114 10.0967 54.6055 10.1142 54.7731 10.1492C54.8614 10.1755 54.9143 10.1755 54.9672 10.2017V13.0017ZM56.0966 20.7892V5.89672H58.9025V11.5842C59.2996 11.0767 59.7496 10.683 60.3143 10.3767C61.2083 9.94205 62.2239 9.81875 63.1972 10.0267C64.1706 10.2347 65.0448 10.7618 65.679 11.523C66.6305 12.6102 67.1344 14.0128 67.0908 15.4517C67.1053 16.9189 66.5852 18.342 65.6261 19.4592C65.1824 19.9749 64.6302 20.3879 64.0082 20.6691C63.3862 20.9503 62.7096 21.0928 62.0261 21.0867C61.3829 21.1042 60.7458 20.9591 60.1747 20.6653C59.6036 20.3714 59.1172 19.9383 58.7614 19.4067L58.6731 20.7805L56.0966 20.8067V20.7892ZM61.5231 18.5842C62.0261 18.5842 62.4761 18.4442 62.8996 18.1905C63.2878 17.9105 63.6055 17.543 63.8525 17.0967C64.082 16.6505 64.1878 16.1167 64.1878 15.5217C64.1878 14.9355 64.082 14.4017 63.8525 13.9555C63.6208 13.5252 63.2953 13.1515 62.8996 12.8617C62.4866 12.6065 62.0097 12.4713 61.5231 12.4713C61.0365 12.4713 60.5597 12.6065 60.1467 12.8617C59.7496 13.1417 59.4408 13.5092 59.1849 13.9555C58.9516 14.4476 58.8368 14.9868 58.8496 15.5305C58.8152 16.0472 58.9166 16.564 59.144 17.0303C59.3713 17.4965 59.7168 17.8963 60.1467 18.1905C60.5614 18.4442 61.0114 18.5842 61.5231 18.5842ZM68.1496 20.798V10.228H70.7349L70.8231 11.6017C71.148 11.0751 71.6089 10.6442 72.158 10.3534C72.7072 10.0627 73.3247 9.9227 73.9467 9.94797C74.6579 9.93579 75.357 10.1318 75.9565 10.5116C76.556 10.8913 77.0293 11.4379 77.3172 12.083C77.6261 12.748 77.7937 13.5705 77.7937 14.4892V20.8242H74.979V14.8567C74.979 14.1217 74.8114 13.5442 74.4761 13.1155C74.1408 12.6955 73.6819 12.468 73.0996 12.468C72.6761 12.468 72.3055 12.5555 71.979 12.748C71.6702 12.9492 71.4143 13.203 71.2202 13.5617C71.0239 13.9244 70.9266 14.3316 70.9378 14.743V20.798H68.1496ZM79.1967 20.798V5.88797H82.0114V11.5755C82.3926 11.0651 82.8886 10.65 83.4599 10.3629C84.0312 10.0758 84.6621 9.92477 85.3025 9.92172C85.9674 9.91207 86.626 10.051 87.2293 10.3282C87.8327 10.6054 88.3653 11.0138 88.7878 11.523C89.7325 12.6102 90.2329 14.0085 90.1908 15.443C90.2061 16.9103 89.6859 18.3336 88.7261 19.4505C88.2824 19.9662 87.7302 20.3792 87.1082 20.6604C86.4862 20.9415 85.8096 21.0841 85.1261 21.078C84.4829 21.0954 83.8458 20.9504 83.2747 20.6565C82.7036 20.3626 82.2172 19.9295 81.8614 19.398L81.782 20.7717L79.1967 20.798ZM84.6496 18.5842C85.1614 18.5842 85.6114 18.4442 86.0261 18.1905C86.4231 17.9105 86.7319 17.543 86.9878 17.0967C87.2084 16.6505 87.3231 16.1167 87.3231 15.5217C87.3575 15.0049 87.2561 14.4882 87.0287 14.0219C86.8014 13.5556 86.4559 13.1559 86.0261 12.8617C85.6131 12.6065 85.1362 12.4713 84.6496 12.4713C84.163 12.4713 83.6861 12.6065 83.2731 12.8617C82.8849 13.1417 82.5672 13.5092 82.3202 13.9555C82.0739 14.4432 81.9584 14.9856 81.9849 15.5305C81.9505 16.0472 82.0519 16.564 82.2793 17.0303C82.5066 17.4965 82.8521 17.8963 83.2819 18.1905C83.6967 18.4442 84.1202 18.5842 84.6496 18.5842Z" fill="#FF385C"/>
</g>
<defs>
<clipPath id="clip0_4_715">
<rect width="90" height="28" fill="white" transform="translate(0.5)"/>
</clipPath>
</defs>
</svg>
