<svg width="57" height="57" viewBox="0 0 57 57" fill="none" xmlns="http://www.w3.org/2000/svg">
<path d="M0 14.25C0 12.3603 0.750668 10.5481 2.08686 9.21186C3.42306 7.87567 5.23533 7.125 7.125 7.125H49.875C51.7647 7.125 53.5769 7.87567 54.9131 9.21186C56.2493 10.5481 57 12.3603 57 14.25V42.75C57 44.6397 56.2493 46.4519 54.9131 47.7881C53.5769 49.1243 51.7647 49.875 49.875 49.875H7.125C5.23533 49.875 3.42306 49.1243 2.08686 47.7881C0.750668 46.4519 0 44.6397 0 42.75V14.25ZM7.125 10.6875C6.18017 10.6875 5.27403 11.0628 4.60593 11.7309C3.93783 12.399 3.5625 13.3052 3.5625 14.25V15.0231L28.5 29.9856L53.4375 15.0231V14.25C53.4375 13.3052 53.0622 12.399 52.3941 11.7309C51.726 11.0628 50.8198 10.6875 49.875 10.6875H7.125ZM53.4375 19.1769L36.6652 29.241L53.4375 39.5616V19.1769ZM53.3164 43.6727L33.2239 31.3073L28.5 34.1394L23.7761 31.3073L3.68363 43.6691C3.88607 44.4272 4.33313 45.0973 4.9554 45.5752C5.57767 46.0532 6.34034 46.3124 7.125 46.3125H49.875C50.6592 46.3126 51.4215 46.0539 52.0437 45.5767C52.6659 45.0994 53.1133 44.4301 53.3164 43.6727ZM3.5625 39.5616L20.3348 29.241L3.5625 19.1769V39.5616Z" fill="white"/>
</svg>
