<svg width="29" height="25" viewBox="0 0 29 25" fill="none" xmlns="http://www.w3.org/2000/svg">
<path d="M2.08301 6.45201C2.08301 5.7645 2.64051 5.20825 3.32676 5.20825H13.3393C13.6691 5.20825 13.9855 5.33929 14.2187 5.57254C14.452 5.80579 14.583 6.12214 14.583 6.45201C14.583 6.78187 14.452 7.09823 14.2187 7.33148C13.9855 7.56473 13.6691 7.69576 13.3393 7.69576H3.32676C2.99689 7.69576 2.68054 7.56473 2.44729 7.33148C2.21405 7.09823 2.08301 6.78187 2.08301 6.45201Z" fill="#2B2B2B"/>
<path d="M2.08301 13.9581C2.08301 13.2706 2.64051 12.7144 3.32676 12.7144H25.8393C26.1691 12.7144 26.4855 12.8454 26.7187 13.0786C26.952 13.3119 27.083 13.6282 27.083 13.9581C27.083 14.288 26.952 14.6043 26.7187 14.8376C26.4855 15.0708 26.1691 15.2019 25.8393 15.2019H3.32676C2.99689 15.2019 2.68054 15.0708 2.44729 14.8376C2.21405 14.6043 2.08301 14.288 2.08301 13.9581Z" fill="#2B2B2B"/>
<path d="M3.32676 20.2205C2.99689 20.2205 2.68054 20.3515 2.44729 20.5847C2.21405 20.818 2.08301 21.1343 2.08301 21.4642C2.08301 21.7941 2.21405 22.1104 2.44729 22.3437C2.68054 22.5769 2.99689 22.7079 3.32676 22.7079H18.3393C18.6691 22.7079 18.9855 22.5769 19.2187 22.3437C19.452 22.1104 19.583 21.7941 19.583 21.4642C19.583 21.1343 19.452 20.818 19.2187 20.5847C18.9855 20.3515 18.6691 20.2205 18.3393 20.2205H3.32676Z" fill="#2B2B2B"/>
</svg>
