<svg width="85" height="28" viewBox="0 0 85 28" fill="none" xmlns="http://www.w3.org/2000/svg">
<g clip-path="url(#clip0_4_728)">
<path d="M36.2463 14.3588C36.2463 18.2454 33.1612 21.1093 29.375 21.1093C25.5888 21.1093 22.5037 18.2454 22.5037 14.3588C22.5037 10.4449 25.5888 7.6084 29.375 7.6084C33.1612 7.6084 36.2463 10.4449 36.2463 14.3588ZM33.2384 14.3588C33.2384 11.9301 31.4503 10.2684 29.375 10.2684C27.2997 10.2684 25.5116 11.9301 25.5116 14.3588C25.5116 16.7632 27.2997 18.4493 29.375 18.4493C31.4503 18.4493 33.2384 16.7601 33.2384 14.3588Z" fill="#EA4335"/>
<path d="M51.0698 14.3588C51.0698 18.2454 47.9846 21.1093 44.1985 21.1093C40.4123 21.1093 37.3271 18.2454 37.3271 14.3588C37.3271 10.448 40.4123 7.6084 44.1985 7.6084C47.9846 7.6084 51.0698 10.4449 51.0698 14.3588ZM48.0619 14.3588C48.0619 11.9301 46.2738 10.2684 44.1985 10.2684C42.1232 10.2684 40.3351 11.9301 40.3351 14.3588C40.3351 16.7632 42.1232 18.4493 44.1985 18.4493C46.2738 18.4493 48.0619 16.7601 48.0619 14.3588Z" fill="#FBBC05"/>
<path d="M65.2757 8.01622V20.1354C65.2757 25.1206 62.2925 27.1567 58.7657 27.1567C55.4459 27.1567 53.4478 24.9684 52.6942 23.1788L55.3131 22.1045C55.7794 23.2032 56.922 24.4997 58.7626 24.4997C61.0201 24.4997 62.4191 23.1271 62.4191 20.5432V19.5723H62.3141C61.6409 20.391 60.3438 21.1062 58.707 21.1062C55.2822 21.1062 52.1445 18.1662 52.1445 14.3832C52.1445 10.5727 55.2822 7.6084 58.707 7.6084C60.3407 7.6084 61.6378 8.32362 62.3141 9.11796H62.4191V8.01927H65.2757V8.01622ZM62.6322 14.3832C62.6322 12.0062 61.0232 10.2684 58.9757 10.2684C56.9004 10.2684 55.1617 12.0062 55.1617 14.3832C55.1617 16.7358 56.9004 18.4493 58.9757 18.4493C61.0232 18.4493 62.6322 16.7358 62.6322 14.3832Z" fill="#4285F4"/>
<path d="M69.9853 0.913086V20.6957H67.0515V0.913086H69.9853Z" fill="#34A853"/>
<path d="M81.418 16.5809L83.7527 18.1148C82.9992 19.2135 81.1833 21.1066 78.0457 21.1066C74.1545 21.1066 71.2485 18.1422 71.2485 14.3561C71.2485 10.3418 74.1792 7.60571 77.7091 7.60571C81.2636 7.60571 83.0023 10.3935 83.5705 11.9001L83.8824 12.667L74.7258 16.4044C75.4269 17.7588 76.517 18.4496 78.0457 18.4496C79.5774 18.4496 80.6398 17.707 81.418 16.5809ZM74.2317 14.1522L80.3526 11.6475C80.016 10.8044 79.003 10.217 77.811 10.217C76.2823 10.217 74.1545 11.547 74.2317 14.1522Z" fill="#EA4335"/>
<path d="M11.3985 12.6026V9.73866H21.1913C21.2871 10.2378 21.3365 10.8282 21.3365 11.4674C21.3365 13.6161 20.7404 16.273 18.8196 18.1661C16.9512 20.0834 14.564 21.1061 11.4016 21.1061C5.54015 21.1061 0.611328 16.4008 0.611328 10.6243C0.611328 4.8478 5.54015 0.142578 11.4016 0.142578C14.6443 0.142578 16.9543 1.39649 18.6899 3.03084L16.6393 5.05171C15.3947 3.90127 13.7085 3.00649 11.3985 3.00649C7.11824 3.00649 3.77059 6.40606 3.77059 10.6243C3.77059 14.8426 7.11824 18.2421 11.3985 18.2421C14.1749 18.2421 15.756 17.1434 16.769 16.1452C17.5904 15.3356 18.1309 14.1791 18.344 12.5995L11.3985 12.6026Z" fill="#4285F4"/>
</g>
<defs>
<clipPath id="clip0_4_728">
<rect width="84" height="28" fill="white" transform="translate(0.5)"/>
</clipPath>
</defs>
</svg>
