<svg width="85" height="24" viewBox="0 0 85 24" fill="none" xmlns="http://www.w3.org/2000/svg">
<g clip-path="url(#clip0_4_717)">
<path d="M9.59675 3.97363V10.7434H3.42846V3.97363H0.5V20.1337H3.42846V13.5838H9.59675V20.1337H12.5252V3.97363H9.59675Z" fill="#33475B"/>
<path d="M21.8974 14.9099C21.8974 15.5575 21.6422 16.1786 21.1878 16.6366C20.7335 17.0946 20.1173 17.3518 19.4747 17.3518C18.8322 17.3518 18.216 17.0946 17.7616 16.6366C17.3073 16.1786 17.052 15.5575 17.052 14.9099V7.98828H14.2742V14.9099C14.2742 16.2988 14.8216 17.6308 15.796 18.6128C16.7703 19.5949 18.0918 20.1466 19.4697 20.1466C20.8476 20.1466 22.1691 19.5949 23.1435 18.6128C24.1178 17.6308 24.6652 16.2988 24.6652 14.9099V7.98828H21.8974V14.9099Z" fill="#33475B"/>
<path d="M42.4787 8.70132C42.4787 7.28258 43.4099 6.83281 44.4301 6.83281C45.2522 6.83281 46.3384 7.46336 47.0486 8.22841L48.868 6.06776C47.9597 4.82979 46.1174 3.97363 44.6094 3.97363C41.5963 3.97363 39.4168 5.75248 39.4168 8.70132C39.4168 14.1724 46.0514 12.4369 46.0514 15.4986C46.0514 16.4429 45.1417 17.2774 44.1001 17.2774C42.4572 17.2774 41.9249 16.4675 41.1702 15.6114L39.1514 17.7272C40.4427 19.3252 42.0354 20.1366 43.9437 20.1366C46.8061 20.1366 49.109 18.336 49.109 15.5217C49.109 9.44757 42.4744 11.3349 42.4744 8.70132" fill="#33475B"/>
<path d="M83.5228 17.5522C81.8814 17.5522 81.4151 16.8363 81.4151 15.7401V10.888H83.9662V8.42942H81.4151V5.18555L78.5985 6.45967V16.3431C78.5985 18.8711 80.3289 20.1452 82.7021 20.1452C83.0743 20.1521 83.4463 20.122 83.8127 20.0556L84.4999 17.5059C84.19 17.5276 83.8342 17.5493 83.5228 17.5493" fill="#33475B"/>
<path d="M32.4706 8.06935C31.0946 8.06935 30.1347 8.4714 29.2064 9.38975V4.07056H26.4243V13.9294C26.4243 17.6202 29.0715 20.1482 32.0459 20.1482C35.346 20.1482 38.2486 17.5753 38.2486 14.1102C38.2486 10.6885 35.577 8.0708 32.4706 8.0708V8.06935ZM32.4534 17.3266C31.8291 17.3266 31.2188 17.14 30.6997 16.7904C30.1806 16.4408 29.776 15.9439 29.5371 15.3625C29.2982 14.7811 29.2357 14.1414 29.3575 13.5242C29.4793 12.907 29.7799 12.3401 30.2214 11.8951C30.6628 11.4502 31.2253 11.1471 31.8376 11.0244C32.4499 10.9016 33.0846 10.9646 33.6614 11.2054C34.2382 11.4462 34.7312 11.854 35.078 12.3773C35.4249 12.9005 35.61 13.5156 35.61 14.1449C35.61 14.9888 35.2774 15.798 34.6855 16.3947C34.0935 16.9914 33.2906 17.3266 32.4534 17.3266Z" fill="#33475B"/>
<path d="M62.6793 13.9628C62.6793 10.4918 59.7824 7.9248 56.4766 7.9248C53.5022 7.9248 50.855 10.4528 50.855 14.1435V24.0082H53.6371V18.6818C54.564 19.5987 55.5253 20.0022 56.8999 20.0022C60.0062 20.0022 62.6779 17.386 62.6779 13.9628H62.6793ZM60.045 13.9281C60.045 14.5573 59.8599 15.1725 59.513 15.6957C59.1661 16.2189 58.6732 16.6267 58.0964 16.8675C57.5196 17.1084 56.8849 17.1714 56.2726 17.0486C55.6602 16.9258 55.0978 16.6228 54.6563 16.1778C54.2149 15.7329 53.9142 15.166 53.7924 14.5488C53.6706 13.9316 53.7332 13.2919 53.9721 12.7105C54.211 12.1291 54.6156 11.6322 55.1347 11.2826C55.6538 10.933 56.2641 10.7464 56.8884 10.7464C57.7256 10.7464 58.5285 11.0816 59.1204 11.6783C59.7124 12.2749 60.045 13.0842 60.045 13.9281Z" fill="#33475B"/>
<path d="M71.667 7.78836V4.97112C72.0364 4.79716 72.3492 4.52103 72.5689 4.17487C72.7886 3.82872 72.9063 3.42677 72.9082 3.01584V2.95076C72.9082 2.37541 72.6814 1.82364 72.2778 1.41681C71.8742 1.00998 71.3267 0.781427 70.7559 0.781427H70.6914C70.1206 0.781427 69.5731 1.00998 69.1695 1.41681C68.7659 1.82364 68.5391 2.37541 68.5391 2.95076V3.01584C68.541 3.42677 68.6587 3.82872 68.8784 4.17487C69.0981 4.52103 69.4109 4.79716 69.7803 4.97112V7.78836C68.7186 7.95206 67.7188 8.39559 66.8819 9.07405L59.2171 3.05633C59.2714 2.85789 59.3003 2.65329 59.3032 2.44747C59.3041 1.96401 59.1627 1.49116 58.8968 1.08872C58.631 0.686279 58.2528 0.372335 57.81 0.186596C57.3671 0.000857302 56.8796 -0.0483321 56.409 0.0452496C55.9384 0.138831 55.506 0.37098 55.1663 0.712332C54.8266 1.05368 54.595 1.4889 54.5008 1.96294C54.4066 2.43698 54.4539 2.92854 54.6369 3.37545C54.8198 3.82235 55.1302 4.20452 55.5287 4.47363C55.9272 4.74273 56.3959 4.88667 56.8755 4.88724C57.2949 4.88535 57.7065 4.77266 58.0693 4.5604L65.6179 10.4798C64.9396 11.5123 64.5857 12.7269 64.6023 13.9652C64.619 15.2035 65.0054 16.4079 65.7111 17.4216L63.4154 19.7356C63.2298 19.6758 63.0363 19.6441 62.8415 19.6416C62.4477 19.6418 62.0629 19.7598 61.7356 19.9805C61.4083 20.2011 61.1533 20.5147 61.0027 20.8814C60.8522 21.2481 60.8128 21.6516 60.8897 22.0409C60.9666 22.4301 61.1563 22.7877 61.4347 23.0683C61.7131 23.349 62.0679 23.5401 62.454 23.6176C62.8402 23.6951 63.2405 23.6555 63.6044 23.5037C63.9682 23.352 64.2793 23.0949 64.4982 22.765C64.7171 22.4352 64.8342 22.0473 64.8344 21.6504C64.832 21.4539 64.8005 21.259 64.7412 21.0719L67.0125 18.7825C67.7531 19.357 68.6144 19.753 69.5303 19.9401C70.4462 20.1273 71.3924 20.1007 72.2965 19.8624C73.2007 19.6241 74.0387 19.1804 74.7464 18.5652C75.4541 17.95 76.0128 17.1798 76.3796 16.3134C76.7464 15.447 76.9116 14.5075 76.8625 13.5669C76.8135 12.6262 76.5515 11.7093 76.0966 10.8865C75.6418 10.0636 75.0061 9.35662 74.2383 8.81962C73.4705 8.28261 72.591 7.92985 71.667 7.78836ZM70.7258 17.0528C70.1045 17.0523 69.4973 16.8661 68.981 16.5178C68.4647 16.1695 68.0624 15.6747 67.8249 15.096C67.5875 14.5173 67.5256 13.8806 67.647 13.2665C67.7685 12.6523 68.0679 12.0883 68.5073 11.6455C68.9467 11.2028 69.5065 10.9014 70.1158 10.7792C70.7252 10.6571 71.3568 10.7198 71.9308 10.9593C72.5049 11.1989 72.9955 11.6047 73.3409 12.1253C73.6862 12.6458 73.8706 13.2579 73.8709 13.8842C73.8709 14.7242 73.5399 15.5298 72.9506 16.1237C72.3613 16.7177 71.562 17.0514 70.7287 17.0514" fill="#FF7A59"/>
</g>
<defs>
<clipPath id="clip0_4_717">
<rect width="84" height="24" fill="white" transform="translate(0.5)"/>
</clipPath>
</defs>
</svg>
