<svg width="123" height="26" viewBox="0 0 123 26" fill="none" xmlns="http://www.w3.org/2000/svg">
<g clip-path="url(#clip0_4_735)">
<path d="M43.5636 14.9748L42.8365 17.0306H42.7759C42.6547 16.5671 42.4325 15.8616 42.0689 15.0151L38.1706 5.23993H34.353V20.8198H36.8779V11.2058C36.8779 10.6012 36.8779 9.9159 36.8577 9.06939C36.8375 8.64613 36.7971 8.32365 36.7769 8.08179H36.8375C36.9587 8.68644 37.1 9.12985 37.201 9.41202L41.8871 20.7795H43.6646L48.3103 9.31125C48.4113 9.04923 48.5123 8.5252 48.6133 8.08179H48.6739C48.6133 9.23063 48.5729 10.2585 48.5527 10.8833V20.7593H51.2391V5.19962H47.563L43.5636 14.9748ZM53.7841 9.59342H56.41V20.7593H53.7841V9.59342ZM55.1173 4.87714C54.6729 4.87714 54.3093 5.03838 54.0063 5.32055C53.7034 5.60272 53.5418 5.96551 53.5418 6.40892C53.5418 6.83218 53.7034 7.19497 54.0063 7.47714C54.3093 7.75931 54.6729 7.90039 55.1173 7.90039C55.5616 7.90039 55.9454 7.73915 56.2282 7.47714C56.5312 7.19497 56.6928 6.83218 56.6928 6.40892C56.6928 5.98566 56.5312 5.62287 56.2282 5.32055C55.9656 5.03838 55.5818 4.87714 55.1173 4.87714ZM65.7216 9.49264C65.2368 9.39187 64.7318 9.3314 64.2471 9.3314C63.0553 9.3314 61.9646 9.59342 61.0557 10.1174C60.1467 10.6415 59.4196 11.3671 58.955 12.274C58.4702 13.2012 58.2279 14.2694 58.2279 15.4988C58.2279 16.5671 58.4702 17.5143 58.9348 18.381C59.3994 19.2275 60.0457 19.9128 60.9143 20.3764C61.7424 20.8399 62.712 21.0818 63.8027 21.0818C65.055 21.0818 66.1255 20.8198 66.9739 20.3361L66.9941 20.3159V17.8973L66.8931 17.9779C66.5093 18.2601 66.0649 18.5019 65.6206 18.643C65.156 18.8043 64.7318 18.8849 64.3683 18.8849C63.3179 18.8849 62.4898 18.5826 61.904 17.9174C61.2981 17.2725 60.9951 16.3857 60.9951 15.2771C60.9951 14.1283 61.2981 13.2213 61.9242 12.5562C62.5504 11.8911 63.3785 11.5485 64.3885 11.5485C65.2368 11.5485 66.1053 11.8306 66.8931 12.395L66.9941 12.4756V9.9159L66.9739 9.89574C66.6305 9.75466 66.2467 9.59342 65.7216 9.49264ZM74.3868 9.41202C73.7404 9.41202 73.1345 9.61357 72.6093 10.0368C72.1649 10.3996 71.862 10.9236 71.5994 11.5485H71.5792V9.59342H68.9534V20.7593H71.5792V15.0554C71.5792 14.088 71.7812 13.2818 72.2255 12.6973C72.6699 12.0926 73.2355 11.7903 73.9222 11.7903C74.1646 11.7903 74.407 11.8508 74.71 11.8911C74.9928 11.9717 75.1947 12.0523 75.3361 12.1531L75.4371 12.2337V9.61357L75.3765 9.59342C75.1947 9.47249 74.8312 9.41202 74.3868 9.41202ZM81.5371 9.35156C79.6991 9.35156 78.2245 9.89574 77.1944 10.964C76.1441 12.0322 75.6391 13.5035 75.6391 15.3578C75.6391 17.0911 76.1643 18.5019 77.1742 19.5299C78.1841 20.5376 79.5577 21.0616 81.2745 21.0616C83.0722 21.0616 84.5063 20.5174 85.5365 19.4291C86.5868 18.3407 87.0918 16.8895 87.0918 15.0957C87.0918 13.3221 86.607 11.9112 85.6173 10.8833C84.6679 9.85543 83.2742 9.35156 81.5371 9.35156ZM83.6378 17.9376C83.153 18.5624 82.3855 18.8647 81.4361 18.8647C80.4868 18.8647 79.7192 18.5624 79.1739 17.8973C78.6285 17.2725 78.3659 16.3655 78.3659 15.2167C78.3659 14.0275 78.6487 13.1205 79.1739 12.4756C79.7192 11.8306 80.4666 11.5081 81.4159 11.5081C82.3451 11.5081 83.0722 11.8105 83.5974 12.4353C84.1226 13.0601 84.4053 13.9671 84.4053 15.1562C84.3649 16.3655 84.1428 17.3128 83.6378 17.9376ZM92.9494 14.2291C92.1212 13.8864 91.5961 13.6244 91.3537 13.4027C91.1517 13.2012 91.0507 12.919 91.0507 12.5562C91.0507 12.2539 91.1719 11.9516 91.4749 11.75C91.7779 11.5485 92.1212 11.4477 92.6262 11.4477C93.0706 11.4477 93.5351 11.5283 93.9795 11.6492C94.4239 11.7702 94.8279 11.9516 95.151 12.1934L95.252 12.274V9.81512L95.1914 9.79497C94.8884 9.67404 94.4845 9.55311 93.9997 9.45233C93.5149 9.37171 93.0706 9.3314 92.707 9.3314C91.4547 9.3314 90.4245 9.63373 89.6166 10.2988C88.8087 10.9236 88.4249 11.7702 88.4249 12.7578C88.4249 13.2818 88.5057 13.7454 88.6875 14.1283C88.8692 14.5112 89.1318 14.874 89.4954 15.1764C89.859 15.4585 90.3841 15.781 91.1113 16.0833C91.7173 16.3454 92.1818 16.5469 92.4646 16.7081C92.7474 16.8694 92.9292 17.0508 93.0706 17.1919C93.1716 17.3531 93.2322 17.5547 93.2322 17.8167C93.2322 18.5624 92.6666 18.9252 91.5153 18.9252C91.0709 18.9252 90.6063 18.8446 90.061 18.6632C89.5156 18.4818 89.0106 18.2198 88.5865 17.9174L88.4855 17.8368V20.3965L88.5461 20.4167C88.9298 20.5981 89.3944 20.719 89.96 20.8601C90.5255 20.9609 91.0305 21.0415 91.4749 21.0415C92.8282 21.0415 93.9391 20.7392 94.7269 20.074C95.5348 19.4291 95.959 18.6027 95.959 17.5345C95.959 16.7888 95.757 16.1237 95.3126 15.6198C94.7269 15.1361 93.9997 14.6322 92.9494 14.2291ZM102.887 9.35156C101.049 9.35156 99.5745 9.89574 98.5444 10.964C97.5143 12.0322 96.9891 13.5035 96.9891 15.3578C96.9891 17.0911 97.5143 18.5019 98.5242 19.5299C99.5341 20.5376 100.908 21.0616 102.625 21.0616C104.422 21.0616 105.856 20.5174 106.886 19.4291C107.937 18.3407 108.442 16.8895 108.442 15.0957C108.442 13.3221 107.957 11.9112 106.967 10.8833C106.018 9.85543 104.624 9.35156 102.887 9.35156ZM104.968 17.9376C104.483 18.5624 103.715 18.8647 102.766 18.8647C101.796 18.8647 101.049 18.5624 100.504 17.8973C99.9583 17.2725 99.6957 16.3655 99.6957 15.2167C99.6957 14.0275 99.9785 13.1205 100.504 12.4756C101.049 11.8306 101.796 11.5081 102.746 11.5081C103.655 11.5081 104.402 11.8105 104.927 12.4353C105.452 13.0601 105.735 13.9671 105.735 15.1562C105.735 16.3655 105.473 17.3128 104.968 17.9376ZM122.48 11.75V9.59342H119.834V6.28799L119.753 6.30815L117.248 7.05388L117.188 7.07404V9.59342H113.229V8.18256C113.229 7.5376 113.39 7.03373 113.673 6.71125C113.956 6.38877 114.38 6.22753 114.905 6.22753C115.269 6.22753 115.653 6.30815 116.077 6.48954L116.178 6.55001V4.27249L116.117 4.25233C115.754 4.1314 115.269 4.05078 114.643 4.05078C113.855 4.05078 113.168 4.23218 112.542 4.5345C111.916 4.87714 111.451 5.3407 111.108 5.96551C110.765 6.57016 110.583 7.25543 110.583 8.04148V9.59342H108.745V11.7299H110.583V20.7593H113.229V11.75H117.188V17.4942C117.188 19.8523 118.299 21.0415 120.521 21.0415C120.884 21.0415 121.268 20.981 121.631 20.9205C122.015 20.8399 122.298 20.7392 122.46 20.6585L122.48 20.6384V18.4818L122.379 18.5624C122.217 18.6632 122.076 18.7438 121.833 18.8043C121.631 18.8647 121.45 18.8849 121.308 18.8849C120.783 18.8849 120.42 18.764 120.157 18.4616C119.915 18.1795 119.793 17.7159 119.793 17.0306V11.75H122.48Z" fill="#737373"/>
<path d="M0.5 0H12.8818V12.355H0.5V0Z" fill="#F25022"/>
<path d="M14.1744 0H26.5562V12.355H14.1744V0Z" fill="#7FBA00"/>
<path d="M0.5 13.6445H12.8818V25.9996H0.5V13.6445Z" fill="#00A4EF"/>
<path d="M14.1743 13.6445H26.5561V25.9996H14.1743V13.6445Z" fill="#FFB900"/>
</g>
<defs>
<clipPath id="clip0_4_735">
<rect width="122" height="26" fill="white" transform="translate(0.5)"/>
</clipPath>
</defs>
</svg>
