<svg width="85" height="85" viewBox="0 0 85 85" fill="none" xmlns="http://www.w3.org/2000/svg">
<circle cx="42.1659" cy="42.1659" r="42.1659" fill="#266937"/>
<path d="M31.4721 35.1609C28.3222 35.1609 25.5189 33.0497 24.4964 29.9075C24.4488 29.761 24.4613 29.6017 24.5311 29.4644C24.601 29.3272 24.7225 29.2233 24.8689 29.1757C25.0154 29.1281 25.1747 29.1405 25.312 29.2104C25.4492 29.2803 25.553 29.4018 25.6007 29.5482C26.4669 32.2116 28.8266 33.9998 31.4721 33.9998C31.7926 33.9998 32.1125 33.9737 32.4287 33.9218C32.5039 33.9094 32.5809 33.9119 32.6551 33.9292C32.7294 33.9465 32.7995 33.9783 32.8615 34.0227C32.9235 34.0672 32.9761 34.1233 33.0163 34.1881C33.0566 34.2529 33.0837 34.3249 33.0961 34.4002C33.1085 34.4754 33.106 34.5523 33.0887 34.6266C33.0713 34.7009 33.0396 34.771 32.9951 34.8329C32.9507 34.8949 32.8945 34.9475 32.8298 34.9878C32.765 35.0281 32.693 35.0552 32.6177 35.0676C32.239 35.1296 31.8559 35.1609 31.4721 35.1609Z" fill="white"/>
<path d="M51.5239 35.1612C51.1401 35.1613 50.7569 35.1302 50.3781 35.0683C50.2261 35.0433 50.0904 34.9589 50.0006 34.8338C49.9109 34.7086 49.8745 34.553 49.8996 34.401C49.9246 34.2491 50.009 34.1133 50.1341 34.0236C50.2593 33.9338 50.4149 33.8975 50.5669 33.9225C50.8832 33.9745 51.2033 34.0006 51.5239 34.0005C54.1692 34.0005 56.5289 32.2124 57.3951 29.5489C57.4446 29.4048 57.5487 29.2859 57.685 29.2178C57.8214 29.1498 57.979 29.1381 58.1239 29.1852C58.2688 29.2324 58.3894 29.3346 58.4596 29.4699C58.5298 29.6051 58.544 29.7626 58.4991 29.9082C57.4771 33.05 54.6736 35.1612 51.5239 35.1612Z" fill="white"/>
<path d="M43.6176 63.2233C43.3724 63.2237 43.1281 63.1946 42.89 63.1366L29.0491 59.7192V59.9804C29.0488 60.2663 28.9352 60.5403 28.7331 60.7424C28.531 60.9446 28.257 61.0583 27.9711 61.0587H22.0786C21.9246 61.0587 21.7769 60.9975 21.668 60.8886C21.5592 60.7797 21.498 60.6321 21.498 60.4781C21.498 60.3241 21.5592 60.1764 21.668 60.0676C21.7769 59.9587 21.9246 59.8975 22.0786 59.8975H27.8868V58.9779C27.8868 58.8898 27.9069 58.8028 27.9455 58.7236C27.984 58.6444 28.0401 58.575 28.1095 58.5207C28.1789 58.4664 28.2597 58.4286 28.3459 58.4102C28.432 58.3917 28.5212 58.3931 28.6067 58.4143L43.1675 62.0092C43.5785 62.1079 44.0104 62.0704 44.3983 61.9023L59.407 55.2409C59.4767 55.2099 59.5518 55.193 59.628 55.1911C59.7043 55.1892 59.7801 55.2023 59.8513 55.2297C59.9224 55.2571 59.9875 55.2982 60.0427 55.3508C60.098 55.4033 60.1423 55.4662 60.1733 55.5359C60.2042 55.6056 60.2211 55.6807 60.223 55.7569C60.2249 55.8331 60.2118 55.909 60.1844 55.9801C60.157 56.0513 60.1159 56.1163 60.0634 56.1716C60.0108 56.2269 59.9479 56.2712 59.8782 56.3022L44.869 62.9641C44.4742 63.136 44.0481 63.2242 43.6176 63.2233Z" fill="white"/>
<path d="M31.1604 38.6731C31.3371 38.6731 31.5143 38.6659 31.6911 38.6526C32.018 41.0213 33.1913 43.1916 34.994 44.7626C36.7967 46.3335 39.107 47.1989 41.4982 47.1989C43.8893 47.1989 46.1997 46.3335 48.0024 44.7626C49.8051 43.1916 50.9783 41.0213 51.3053 38.6526C51.4818 38.6656 51.6588 38.6738 51.8357 38.6738C53.7097 38.6717 55.5064 37.9263 56.8314 36.6011C58.1565 35.2759 58.9017 33.4792 58.9036 31.6052C58.9036 27.8849 52.5831 18.6433 52.3141 18.252C52.2608 18.1744 52.1894 18.1109 52.106 18.067C52.0226 18.0232 51.9298 18.0002 51.8356 18.0002C51.7414 18.0002 51.6486 18.0232 51.5653 18.067C51.4819 18.1109 51.4105 18.1744 51.3571 18.252C49.6896 20.7119 48.1555 23.2597 46.7613 25.8842C44.4764 21.9057 42.1671 18.5291 41.9774 18.252C41.9241 18.1743 41.8526 18.1108 41.7692 18.0669C41.6858 18.023 41.593 18.0001 41.4988 18.0001C41.4045 18.0001 41.3117 18.023 41.2283 18.0669C41.1449 18.1108 41.0735 18.1743 41.0202 18.252C40.83 18.5291 38.5204 21.9057 36.2362 25.8842C34.8416 23.2596 33.3069 20.7118 31.6388 18.2518C31.5855 18.1742 31.514 18.1107 31.4307 18.0668C31.3473 18.0229 31.2545 18 31.1603 18C31.0661 18 30.9733 18.0229 30.8899 18.0668C30.8066 18.1107 30.7351 18.1742 30.6818 18.2518C30.4129 18.6433 24.0925 27.8849 24.0925 31.605C24.0946 33.4789 24.8399 35.2755 26.1649 36.6005C27.4899 37.9256 29.2865 38.671 31.1604 38.6731ZM51.8371 19.6208C53.8455 22.6439 57.7425 29.0386 57.7425 31.6052C57.7407 33.1712 57.1178 34.6726 56.0105 35.7799C54.9031 36.8873 53.4018 37.5101 51.8357 37.5119C51.689 37.5119 51.542 37.5052 51.3945 37.4945C51.3959 37.4281 51.3996 37.3626 51.3996 37.296C51.3996 34.8975 49.5255 30.8514 47.448 27.1023C48.8748 24.1948 50.9194 21.0088 51.8371 19.6208ZM41.4981 19.6203C42.397 20.97 44.4135 24.0656 46.2836 27.4C46.2883 27.4088 46.2929 27.4176 46.2982 27.4262C48.3597 31.1045 50.2394 35.068 50.2394 37.296C50.2275 39.6065 49.3013 41.8183 47.6633 43.4479C46.0253 45.0774 43.8087 45.9922 41.4982 45.9922C39.1877 45.9922 36.9711 45.0774 35.3331 43.4479C33.6951 41.8183 32.7689 39.6065 32.757 37.296C32.757 35.0666 34.638 31.1017 36.7005 27.422C36.7037 27.4167 36.7065 27.4114 36.7095 27.406C38.5806 24.0696 40.5989 20.9719 41.4981 19.6203ZM31.1588 19.6203C32.0766 21.0079 34.1206 24.1934 35.5479 27.1018C33.4704 30.8509 31.5965 34.897 31.5965 37.2967C31.5965 37.3633 31.6003 37.4293 31.6016 37.4957C31.4549 37.5064 31.3079 37.5126 31.1604 37.5126C29.5943 37.5108 28.0928 36.8879 26.9854 35.7804C25.8781 34.6729 25.2553 33.1713 25.2537 31.6052C25.2537 29.0395 29.1507 22.6439 31.1588 19.6208V19.6203Z" fill="white"/>
<path d="M61.7287 54.0182C61.3962 53.2014 60.7718 52.5375 59.977 52.1555C59.1821 51.7735 58.2736 51.7007 57.4281 51.9514L47.031 55.0198C47.0505 54.6799 47.0267 54.339 46.9599 54.0052L46.9509 53.9571C46.8443 53.3621 46.5659 52.8113 46.1498 52.3728C45.7338 51.9343 45.1984 51.6273 44.6098 51.4897L36.3557 49.4268C35.7258 49.2701 35.0624 49.3175 34.4611 49.562L29.0477 51.7558V50.2965C29.0473 50.0107 28.9337 49.7366 28.7316 49.5345C28.5295 49.3324 28.2555 49.2186 27.9697 49.2183H22.0782C21.7924 49.2186 21.5183 49.3323 21.3161 49.5344C21.114 49.7366 21.0003 50.0106 21 50.2965V62.3027C21.0003 62.5886 21.114 62.8627 21.3161 63.0648C21.5183 63.267 21.7924 63.3807 22.0782 63.381H27.9697C28.2555 63.3806 28.5295 63.2669 28.7316 63.0647C28.9337 62.8626 29.0473 62.5886 29.0477 62.3027V62.0417L42.8885 65.4592C43.1267 65.5172 43.3709 65.5462 43.6161 65.5458C44.0467 65.5468 44.4729 65.4586 44.8678 65.2866L59.877 58.6247C60.7275 58.2524 61.398 57.5613 61.7442 56.6999C62.0905 55.8385 62.085 54.8756 61.7287 54.0182ZM59.4065 57.5636L44.3977 64.2251C44.0099 64.393 43.578 64.4305 43.1669 64.3319L28.6062 60.737C28.5207 60.7159 28.4314 60.7145 28.3453 60.7329C28.2591 60.7514 28.1783 60.7892 28.109 60.8435C28.0396 60.8978 27.9835 60.9672 27.9449 61.0464C27.9063 61.1256 27.8863 61.2126 27.8863 61.3007V62.2203H22.1611V50.3794H27.8865V52.6123C27.8865 52.6141 27.8865 52.616 27.8865 52.6179V59.1816C27.8865 59.3355 27.9477 59.4832 28.0566 59.5921C28.1654 59.701 28.3131 59.7621 28.4671 59.7621C28.6211 59.7621 28.7687 59.701 28.8776 59.5921C28.9865 59.4832 29.0477 59.3355 29.0477 59.1816V53.0092L34.8982 50.6381C35.272 50.4855 35.6848 50.456 36.0765 50.5538L44.3295 52.6165C44.6982 52.6996 45.0345 52.889 45.2969 53.1611C45.5592 53.4332 45.7361 53.7762 45.8058 54.1478L45.8195 54.2228C45.8659 54.465 46.0052 55.2026 45.6014 55.6902C45.2763 56.0822 44.6174 56.2892 43.6936 56.2892C42.9911 56.2547 42.2933 56.1546 41.6094 55.99C41.3103 55.9287 41.0288 55.8707 40.7866 55.8326C40.711 55.8202 40.6338 55.8229 40.5593 55.8405C40.4848 55.858 40.4145 55.8902 40.3525 55.935C40.2904 55.9799 40.2379 56.0366 40.1978 56.1018C40.1578 56.167 40.131 56.2396 40.1191 56.3152C40.1072 56.3908 40.1104 56.468 40.1284 56.5424C40.1465 56.6168 40.1791 56.6869 40.2243 56.7486C40.2696 56.8104 40.3266 56.8626 40.3921 56.9022C40.4575 56.9419 40.5302 56.9681 40.6059 56.9796C40.821 57.0135 41.0903 57.0688 41.3755 57.1275C42.1362 57.3086 42.9124 57.4167 43.6936 57.4503C44.993 57.4503 45.9356 57.1075 46.4959 56.4311C46.5113 56.4122 46.5264 56.3934 46.5412 56.3744C46.5549 56.3714 46.5689 56.3677 46.5828 56.3637L57.7567 53.0661C58.3413 52.8942 58.9694 52.951 59.5136 53.2251C60.0578 53.4992 60.4774 53.97 60.6874 54.542C60.8973 55.114 60.8819 55.7445 60.6442 56.3055C60.4065 56.8666 59.9644 57.3163 59.4074 57.5634L59.4065 57.5636Z" fill="white"/>
<path d="M40.8598 38.4932C40.7803 38.4933 40.7016 38.4769 40.6287 38.4453C40.5557 38.4137 40.4901 38.3674 40.4357 38.3093L37.3724 35.0349C37.2672 34.9224 37.211 34.7728 37.2161 34.6189C37.2213 34.465 37.2874 34.3194 37.3998 34.2142C37.5123 34.109 37.6619 34.0528 37.8158 34.0579C37.9698 34.0631 38.1153 34.1291 38.2205 34.2416L40.8287 37.0295L45.0838 31.7842C45.1808 31.6646 45.3213 31.5884 45.4745 31.5725C45.6276 31.5565 45.7809 31.602 45.9004 31.699C46.02 31.796 46.0962 31.9366 46.1121 32.0897C46.1281 32.2429 46.0826 32.3961 45.9855 32.5157L41.3115 38.2784C41.2592 38.3428 41.1938 38.3953 41.1195 38.4322C41.0453 38.4692 40.964 38.4899 40.8812 38.4928L40.8598 38.4932Z" fill="white"/>
</svg>
