<svg width="16" height="17" viewBox="0 0 16 17" fill="none" xmlns="http://www.w3.org/2000/svg">
<path d="M14.1892 5.86192L10.222 5.24932L8.44859 1.4293C8.40015 1.32471 8.32047 1.24005 8.22203 1.18858C7.97515 1.05909 7.67515 1.167 7.55172 1.4293L5.77828 5.24932L1.81109 5.86192C1.70171 5.87852 1.60171 5.93331 1.52515 6.01631C1.43259 6.11739 1.38159 6.25338 1.38334 6.3944C1.3851 6.53542 1.43948 6.66992 1.53453 6.76836L4.40484 9.7417L3.72671 13.9402C3.71081 14.0379 3.72098 14.1384 3.75608 14.2302C3.79117 14.322 3.84978 14.4016 3.92526 14.4598C4.00074 14.5181 4.09007 14.5527 4.18312 14.5597C4.27617 14.5668 4.36922 14.546 4.45171 14.4997L8.00015 12.5175L11.5486 14.4997C11.6455 14.5545 11.758 14.5728 11.8658 14.5528C12.1377 14.503 12.3205 14.2291 12.2736 13.9402L11.5955 9.7417L14.4658 6.76836C14.5439 6.68702 14.5955 6.58077 14.6111 6.46456C14.6533 6.17403 14.4627 5.90508 14.1892 5.86192Z" fill="#FFC700"/>
</svg>
